<svg width="77" height="22" fill="none" xmlns="http://www.w3.org/2000/svg"><circle cx="11" cy="11" r="10.5" stroke="#282826"/><circle cx="11" cy="11" r="7.5" stroke="#282826"/><path d="M15.5 11a4.5 4.5 0 1 1-9 0 4.5 4.5 0 0 1 9 0Z" stroke="#282826"/><path d="M32.969 15h-2.063l-2.244-3.61-.767.551V15h-1.817V6.434h1.817v3.92c.12-.168.24-.336.357-.504.117-.168.236-.336.357-.504l2.32-2.912h2.016l-2.988 3.79L32.969 15Zm3.62-6.686c.88 0 1.554.192 2.022.575.47.382.704.965.704 1.746V15h-1.249l-.345-.89h-.047a3.318 3.318 0 0 1-.574.574 1.97 1.97 0 0 1-.674.328c-.254.07-.563.105-.926.105-.387 0-.734-.074-1.043-.223a1.656 1.656 0 0 1-.72-.68c-.177-.308-.264-.698-.264-1.171 0-.695.244-1.207.732-1.535.488-.332 1.22-.516 2.197-.551l1.137-.035v-.287c0-.344-.09-.596-.27-.756-.18-.16-.43-.24-.75-.24-.316 0-.626.045-.931.134-.305.09-.61.204-.914.34l-.592-1.207a5.083 5.083 0 0 1 1.166-.433c.434-.106.88-.159 1.342-.159Zm.95 3.65-.691.024c-.578.016-.98.12-1.207.31a.948.948 0 0 0-.334.757c0 .273.08.468.24.586.16.113.369.17.627.17.383 0 .705-.114.967-.34.265-.227.398-.55.398-.967v-.54Zm7.342-3.638c.7 0 1.262.192 1.687.574.426.38.639.989.639 1.829V15H45.42v-3.826c0-.469-.086-.822-.258-1.06-.168-.239-.434-.358-.797-.358-.547 0-.92.185-1.119.556-.2.372-.299.907-.299 1.606V15H41.16V8.45h1.365l.24.837h.1c.14-.226.315-.41.522-.55.21-.141.443-.245.697-.311.258-.067.523-.1.797-.1Zm5.953-2.443v2.12c0 .247-.008.491-.024.733-.011.243-.027.43-.046.563h.07c.172-.27.406-.498.703-.686.297-.191.682-.287 1.154-.287.735 0 1.33.287 1.787.861.457.575.686 1.417.686 2.526 0 .746-.105 1.373-.316 1.88-.211.505-.506.886-.885 1.143-.379.254-.819.381-1.319.381-.48 0-.859-.086-1.136-.258a2.616 2.616 0 0 1-.674-.58h-.123l-.299.721h-1.365V5.883h1.787Zm1.283 3.873c-.312 0-.56.064-.744.193-.183.13-.318.322-.404.58-.082.258-.127.584-.135.979v.193c0 .637.094 1.125.281 1.465.188.336.53.504 1.026.504.367 0 .658-.17.873-.51.218-.34.328-.83.328-1.47 0-.641-.11-1.124-.328-1.448-.22-.324-.518-.486-.897-.486Zm7.207-1.442c.88 0 1.553.192 2.022.575.469.382.703.965.703 1.746V15H60.8l-.346-.89h-.047a3.318 3.318 0 0 1-.574.574 1.97 1.97 0 0 1-.674.328c-.254.07-.562.105-.926.105-.386 0-.734-.074-1.043-.223a1.656 1.656 0 0 1-.72-.68c-.176-.308-.264-.698-.264-1.171 0-.695.244-1.207.733-1.535.488-.332 1.22-.516 2.197-.551l1.136-.035v-.287c0-.344-.09-.596-.27-.756-.179-.16-.429-.24-.75-.24-.316 0-.626.045-.93.134-.305.09-.61.204-.915.34l-.592-1.207a5.081 5.081 0 0 1 1.166-.433c.434-.106.881-.159 1.342-.159Zm.95 3.65-.692.024c-.578.016-.98.12-1.207.31a.948.948 0 0 0-.334.757c0 .273.08.468.24.586.16.113.37.17.627.17.383 0 .705-.114.967-.34.266-.227.398-.55.398-.967v-.54Zm7.341-3.638c.7 0 1.262.192 1.688.574.425.38.638.989.638 1.829V15h-1.787v-3.826c0-.469-.086-.822-.257-1.06-.169-.239-.434-.358-.797-.358-.547 0-.92.185-1.12.556-.199.372-.298.907-.298 1.606V15h-1.788V8.45h1.366l.24.837h.1c.14-.226.314-.41.521-.55.211-.141.444-.245.697-.311.258-.067.524-.1.797-.1Zm3.914 5.836c0-.367.1-.625.3-.773.202-.149.446-.223.732-.223.277 0 .515.074.714.223.203.148.305.406.305.773 0 .352-.102.606-.305.762-.199.156-.437.234-.715.234-.285 0-.529-.078-.732-.234-.2-.156-.299-.41-.299-.762Z" fill="#282826"/></svg>