<svg width="16" height="16" viewBox="0 0 16 16" fill="none" xmlns="http://www.w3.org/2000/svg">
<mask id="path-1-inside-1_20_68" fill="white">
<path d="M6.665 2.76692C5.3468 2.79648 4.06714 3.20906 2.98783 3.95246C1.90852 4.69587 1.07805 5.73672 0.601428 6.94339C0.124806 8.15006 0.0234427 9.46836 0.310156 10.7316C0.596869 11.9948 1.25878 13.1462 2.21219 14.0402C3.1656 14.9341 4.36768 15.5306 5.66643 15.754C6.96518 15.9774 8.30225 15.8178 9.50858 15.2953C10.7149 14.7729 11.7363 13.9111 12.4436 12.8188C13.1509 11.7266 13.5124 10.4531 13.4822 9.15921L6.81731 9.30871L6.665 2.76692Z"/>
</mask>
<path d="M6.665 2.76692C5.3468 2.79648 4.06714 3.20906 2.98783 3.95246C1.90852 4.69587 1.07805 5.73672 0.601428 6.94339C0.124806 8.15006 0.0234427 9.46836 0.310156 10.7316C0.596869 11.9948 1.25878 13.1462 2.21219 14.0402C3.1656 14.9341 4.36768 15.5306 5.66643 15.754C6.96518 15.9774 8.30225 15.8178 9.50858 15.2953C10.7149 14.7729 11.7363 13.9111 12.4436 12.8188C13.1509 11.7266 13.5124 10.4531 13.4822 9.15921L6.81731 9.30871L6.665 2.76692Z" stroke="#282826" stroke-width="2" mask="url(#path-1-inside-1_20_68)"/>
<mask id="path-2-inside-2_20_68" fill="white">
<path d="M15.9998 6.5435C15.9998 5.6842 15.8274 4.83331 15.4924 4.03941C15.1573 3.24552 14.6663 2.52417 14.0472 1.91655C13.4282 1.30893 12.6932 0.826936 11.8844 0.498094C11.0756 0.169253 10.2087 -3.75614e-08 9.33318 0L9.33318 6.5435H15.9998Z"/>
</mask>
<path d="M15.9998 6.5435C15.9998 5.6842 15.8274 4.83331 15.4924 4.03941C15.1573 3.24552 14.6663 2.52417 14.0472 1.91655C13.4282 1.30893 12.6932 0.826936 11.8844 0.498094C11.0756 0.169253 10.2087 -3.75614e-08 9.33318 0L9.33318 6.5435H15.9998Z" stroke="#282826" stroke-width="2" mask="url(#path-2-inside-2_20_68)"/>
</svg>
